<svg xmlns="http://www.w3.org/2000/svg" viewBox="0 0 32 32" fill="none">
  <rect width="32" height="32" rx="6" fill="white"/>
  <!-- Open book -->
  <g transform="translate(16, 18) scale(0.14)">
    <!-- Book outline -->
    <path d="M-100,-60 C-100,-60 -10,-70 0,-70 C10,-70 100,-60 100,-60 L100,50 C90,40 10,45 0,45 C-10,45 -90,40 -100,50 Z" stroke="#16A34A" stroke-width="12" fill="none"/>
    <line x1="0" y1="-70" x2="0" y2="45" stroke="#16A34A" stroke-width="6"/>
    <!-- Brain-lightbulb -->
    <circle cx="0" cy="-15" r="28" stroke="#16A34A" stroke-width="10" fill="none"/>
    <path d="M-12,-25 C-12,-35 12,-35 12,-25 C12,-18 5,-12 5,-5 L-5,-5 C-5,-12 -12,-18 -12,-25" fill="#16A34A"/>
    <rect x="-5" y="-5" width="10" height="8" rx="2" fill="#16A34A"/>
  </g>
</svg>
